<svg height="448pt" viewBox="0 0 448 448" width="448pt" xmlns="http://www.w3.org/2000/svg"><path d="m412.359375 136h17.703125c-35.273438-82.492188-116.34375-136-206.0625-136s-170.789062 53.507812-206.0625 136h17.703125c34.132813-73.203125 107.589844-120 188.359375-120s154.226562 46.796875 188.359375 120zm0 0"/><path d="m0 160v112c0 13.253906 10.746094 24 24 24h40v-144h-56c-4.417969 0-8 3.582031-8 8zm0 0"/><path d="m440 152h-48v144h28.257812c-28.601562 57.871094-99.457031 114.207031-164.257812 130.269531v-2.269531c0-4.417969-3.582031-8-8-8h-48c-4.417969 0-8 3.582031-8 8v16c0 4.417969 3.582031 8 8 8h48c3.3125-.023438 6.265625-2.085938 7.433594-5.183594 75.597656-16.800781 157.46875-83.640625 184.636718-151.855468.144532-.488282.234376-.984376.273438-1.488282 4.867188-4.507812 7.640625-10.839844 7.65625-17.472656v-112c0-4.417969-3.582031-8-8-8zm0 0"/><path d="m296 120v24h8c4.417969 0 8 3.582031 8 8s-3.582031 8-8 8h-16c-4.417969 0-8-3.582031-8-8v-32c0-4.417969 3.582031-8 8-8-22.089844 0-40 17.90625-40 40 0 22.089844 17.910156 40 40 40s40-17.910156 40-40c-.027344-22.082031-17.917969-39.972656-40-40 4.417969 0 8 3.582031 8 8zm0 0"/><path d="m326.28125 241.945312h27.664062l-33.945312-33.945312-33.945312 33.945312h23.929687c-9.257813 44.320313-50.664063 74.363282-95.671875 69.421876-45.007812-4.945313-78.902344-43.261719-78.320312-88.535157.585937-45.277343 35.457031-82.707031 80.574218-86.488281 4.40625-.371094 7.679688-4.238281 7.308594-8.644531-.367188-4.40625-4.238281-7.675781-8.644531-7.308594-53.808594 4.472656-95.25 49.378906-95.386719 103.375-.140625 53.996094 41.066406 99.117187 94.851562 103.867187 53.785157 4.746094 102.261719-32.457031 111.585938-85.640624zm0 0"/></svg>