<svg height="448pt" viewBox="0 0 448.572 448" width="448pt" xmlns="http://www.w3.org/2000/svg"><path d="m7.347656 117.703125c-9.769531 70.53125-9.796875 142.074219-.078125 212.613281 9.316407 67.390625 66.769531 117.671875 134.796875 117.96875h58.503906v-104h-59.925781c-10.707031-.03125-20.105469-7.121094-23.082031-17.40625l-1.054688-3.695312c-18.480468-64.636719-18.480468-133.15625 0-197.792969l1.054688-3.695313c2.976562-10.285156 12.375-17.375 23.082031-17.410156h59.925781v-104h-58.503906c-67.839844.238282-125.214844 50.246094-134.71875 117.417969zm0 0"/><path d="m336.570312 80.285156c-61.828124.066406-111.933593 50.171875-112 112-.042968 13.75 2.484376 27.390625 7.457032 40.207032.691406 1.777343.726562 3.746093.097656 5.546874l-19.121094 54.894532 49.601563-12.40625c2.335937-.585938 4.816406-.082032 6.742187 1.367187 19.359375 14.609375 42.972656 22.476563 67.222656 22.390625 61.859376 0 112-50.144531 112-112 0-61.855468-50.140624-112-112-112zm-40 120h-16c-4.417968 0-8-3.582031-8-8 0-4.417968 3.582032-8 8-8h16c4.421876 0 8 3.582032 8 8 0 4.417969-3.578124 8-8 8zm48 0h-16c-4.417968 0-8-3.582031-8-8 0-4.417968 3.582032-8 8-8h16c4.421876 0 8 3.582032 8 8 0 4.417969-3.578124 8-8 8zm48 0h-16c-4.417968 0-8-3.582031-8-8 0-4.417968 3.582032-8 8-8h16c4.421876 0 8 3.582032 8 8 0 4.417969-3.578124 8-8 8zm0 0"/></svg>