<svg height="472pt" viewBox="0 -24 472 472" width="472pt" xmlns="http://www.w3.org/2000/svg"><path d="m304 176h48c4.417969 0 8-3.582031 8-8s-3.582031-8-8-8h-48c-4.417969 0-8 3.582031-8 8s3.582031 8 8 8zm0 0"/><path d="m200 88h256v32h-256zm0 0"/><path d="m8 304h144v16h-144zm0 0"/><path d="m24 416h112v-80h-112zm40-72h32c4.417969 0 8 3.582031 8 8s-3.582031 8-8 8h-32c-4.417969 0-8-3.582031-8-8s3.582031-8 8-8zm0 0"/><path d="m464 312h-32v-176h-208v176h-28.089844l-33.023437-217.0625-8.910157-66.546875c-1.726562-11.757813-11.84375-20.453125-23.730468-20.390625h-50.246094v-8h-64c-8.835938 0-16 7.164062-16 16s7.164062 16 16 16h64v-8h50.246094c3.917968-.035156 7.269531 2.792969 7.898437 6.65625l8.910157 66.542969 34.082031 224 8.878906 58.402343c1.722656 11.761719 11.847656 20.464844 23.738281 20.398438h34.246094c.359375-.046875.714844-.121094 1.0625-.214844 3.527344 14.21875 16.289062 24.203125 30.9375 24.203125s27.410156-9.984375 30.9375-24.203125c.347656.09375.703125.167969 1.0625.214844h72c.359375-.046875.714844-.121094 1.0625-.214844 3.929688 15.671875 18.925781 25.953125 34.960938 23.972656 16.035156-1.980468 28.078124-15.601562 28.078124-31.757812s-12.042968-29.777344-28.078124-31.757812c-16.035157-1.980469-31.03125 8.300781-34.960938 23.972656-.347656-.097656-.703125-.171875-1.0625-.214844h-72c-.359375.046875-.714844.121094-1.0625.214844-3.527344-14.21875-16.289062-24.203125-30.9375-24.203125s-27.410156 9.984375-30.9375 24.203125c-.347656-.097656-.703125-.171875-1.0625-.214844h-34.246094c-3.960937.003906-7.328125-2.886719-7.921875-6.800781l-7.480469-49.199219h265.648438c4.417969 0 8-3.582031 8-8s-3.582031-8-8-8zm-160-168h48c13.253906 0 24 10.746094 24 24s-10.746094 24-24 24h-48c-13.253906 0-24-10.746094-24-24s10.746094-24 24-24zm0 0"/></svg>