<svg id="Capa_1" enable-background="new 0 0 512 512" height="512" viewBox="0 0 512 512" width="512" xmlns="http://www.w3.org/2000/svg" xmlns:xlink="http://www.w3.org/1999/xlink">

<linearGradient id="SVGID_1_" gradientUnits="userSpaceOnUse" x1="256" x2="256" y1="512" y2="0">
    <stop offset="0" stop-color="#ffe59a"/><stop offset="1" stop-color="#ffffd5"/>
</linearGradient>

<linearGradient id="SVGID_2_" gradientUnits="userSpaceOnUse" x1="256" x2="256" y1="105" y2="407">
    <stop offset="0" stop-color="#fd5900"/><stop offset="1" stop-color="#ffde00"/>
</linearGradient><g><g>

<circle cx="256" cy="256" fill="#F6C00F" r="256"/></g><g><g>
<path d="m300.412 318.177h-35.529v35.529c0 4.91-3.973 8.882-8.882 8.882s-8.882-3.973-8.882-8.882v-35.529h-35.529c-4.91 0-8.882 3.973-8.882 8.882v71.059c0 4.91 3.973 8.882 8.882 8.882h88.823c4.91 0 8.882-3.973 8.882-8.882v-71.059c-.001-4.91-3.974-8.882-8.883-8.882zm-44.412-168.765c12.673 0 22.362 5.3 30.906 9.975 7.651 4.181 14.252 7.79 22.388 7.79v-26.647c0-19.595-15.934-35.529-35.529-35.529h-35.529c-19.595 0-35.529 15.934-35.529 35.529v26.647c8.136 0 14.737-3.609 22.388-7.79 8.543-4.675 18.232-9.975 30.905-9.975zm0 97.706c29.388 0 53.294-23.906 53.294-53.294v-8.882c-12.673 0-22.362-5.3-30.906-9.975-7.651-4.181-14.252-7.789-22.388-7.789s-14.737 
3.608-22.388 7.789c-8.544 4.675-18.233 9.975-30.906 9.975v8.882c0 29.388 23.906 53.294 53.294 
53.294zm-8.882-44.412h17.765c4.91 0 8.882 3.973 8.882 8.882 0 4.91-3.973 8.882-8.882 8.882h-17.765c-4.91 
0-8.882-3.973-8.882-8.882-.001-4.909 3.972-8.882 8.882-8.882zm62.176 62.176h-106.588c-29.388 0-53.294 23.906-53.294 
53.294v44.412c0 4.91 3.973 8.882 8.882 8.882h26.647v-44.412c0-14.694 11.953-26.647 26.647-26.647h88.823c14.694 0 
26.647 11.953 26.647 26.647v44.412h26.647c4.91 0 8.882-3.973 8.882-8.882v-44.412c.001-29.388-23.905-53.294-53.293-53.294z" fill="black"/></g></g></g>
</svg>