<svg height="448pt" viewBox="0 -1 448 448" width="448pt" xmlns="http://www.w3.org/2000/svg"><path d="m0 439.34375 209.902344-144.757812-209.902344-144.761719zm0 0"/><path d="m187.59375 22.585938h72.8125l-36.40625-22.585938zm0 0"/><path d="m6.601562 134.9375 49.398438 34.085938v-64.777344zm0 0"/><path d="m72 180.0625 152 104.800781 152-104.800781v-141.476562h-304zm152-29.476562c-20.550781.019531-37.773438-15.535157-39.835938-35.980469-2.066406-20.449219 11.695313-39.132813 31.835938-43.222657v-8.796874c0-4.421876 3.582031-8 8-8s8 3.578124 8 8v8.796874c18.613281 3.828126 31.976562 20.199219 32 39.203126 0 4.417968-3.582031 8-8 8s-8-3.582032-8-8c0-13.257813-10.746094-24-24-24s-24 10.742187-24 24c0 13.253906 10.746094 24 24 24 20.550781-.023438 37.773438 15.53125 39.835938 35.976562 2.066406 20.449219-11.695313 39.132812-31.835938 43.222656v8.800782c0 4.417968-3.582031 8-8 8s-8-3.582032-8-8v-8.800782c-18.613281-3.828125-31.976562-20.199218-32-39.199218 0-4.421876 3.582031-8 8-8s8 3.578124 8 8c0 13.253906 10.746094 24 24 24s24-10.746094 24-24c0-13.257813-10.746094-24-24-24zm0 0"/><path d="m392 169.023438 49.398438-34.085938-49.398438-30.691406zm0 0"/><path d="m224 304.304688-206.304688 142.28125h412.609376zm0 0"/><path d="m448 149.824219-209.902344 144.761719 209.902344 144.757812zm0 0"/></svg>