<?xml version="1.0" encoding="iso-8859-1"?>
<!-- Generator: Adobe Illustrator 19.0.0, SVG Export Plug-In . SVG Version: 6.00 Build 0)  -->
<svg xmlns="http://www.w3.org/2000/svg" xmlns:xlink="http://www.w3.org/1999/xlink" version="1.1" id="Capa_1" x="0px" y="0px" viewBox="0 0 512 512" style="enable-background:new 0 0 512 512;" xml:space="preserve">
<g>
	<g>
		<path fill="#e4e4e4" d="M220,0H20C8.954,0,0,8.954,0,20v200c0,11.046,8.954,20,20,20h200c11.046,0,20-8.954,20-20V20C240,8.954,231.046,0,220,0z     M200,200H40V40h160V200z"/>
	</g>
</g>
<g>
	<g>
		<path fill="#e4e4e4" d="M164.445,55.556H75.556c-11.046,0-20,8.954-20,20v88.888c0,11.046,8.954,20,20,20h88.888c11.046,0,20-8.954,20.001-19.999    V75.556C184.445,64.51,175.491,55.556,164.445,55.556z M144.445,144.444H95.556V95.556h48.889V144.444z"/>
	</g>
</g>
<g>
	<g>
		<path fill="#e4e4e4" d="M492,0H292c-11.046,0-20,8.954-20,20v200c0,11.046,8.954,20,20,20h200c11.046,0,20-8.954,20-20V20    C512,8.954,503.046,0,492,0z M472,200H312V40h160V200z"/>
	</g>
</g>
<g>
	<g>
		<path fill="#e4e4e4" d="M436.444,55.556h-88.889c-11.046,0-20,8.954-20,20v88.888c0,11.046,8.954,20,20,20h88.889c11.046,0,20-8.954,20-19.999    V75.556C456.444,64.51,447.49,55.556,436.444,55.556z M416.445,144.444h-48.889V95.556h48.889V144.444z"/>
	</g>
</g>
<g>
	<g>
		<path fill="#e4e4e4" d="M220,272H20c-11.046,0-20,8.954-20,20v200c0,11.046,8.954,20,20,20h200c11.046,0,20-8.954,20-20V292    C240,280.954,231.046,272,220,272z M200,472H40V312h160V472z"/>
	</g>
</g>
<g>
	<g>
		<path fill="#e4e4e4" d="M164.445,327.555H75.556c-11.046,0-20,8.954-20,20v88.889c0,11.046,8.954,20,20,20h88.888c11.046,0,20-8.954,20.001-20    v-88.889C184.445,336.509,175.491,327.555,164.445,327.555z M144.445,416.444H95.556v-48.889h48.889V416.444z"/>
	</g>
</g>
<g>
	<g>
		<path fill="#e4e4e4" d="M356.074,272H292c-11.046,0-20,8.954-20,20v64.074c0,11.046,8.954,20,20,20c11.046,0,20-8.954,20-20V312h44.074    c11.046,0,20-8.954,20-20C376.074,280.954,367.12,272,356.074,272z"/>
	</g>
</g>
<g>
	<g>
		<path fill="#e4e4e4" d="M492,272h-64.074c-11.046,0-20,8.954-20,20c0,11.046,8.954,20,20,20H472v44.074c0,11.046,8.954,20,20,20    c11.046,0,20-8.954,20-20V292C512,280.954,503.046,272,492,272z"/>
	</g>
</g>
<g>
	<g>
		<path fill="#e4e4e4" d="M356.074,472H312v-44.074c0-11.046-8.954-20-20-20c-11.046,0-20,8.954-20,20V492c0,11.046,8.954,20,20,20h64.074    c11.046,0,20-8.954,20-20C376.074,480.954,367.12,472,356.074,472z"/>
	</g>
</g>
<g>
	<g>
		<path fill="#e4e4e4" d="M492,407.926c-11.046,0-20,8.954-20,20V472h-44.074c-11.046,0-20,8.954-20,20c0,11.046,8.954,20,20,20H492    c11.046,0,20-8.954,20-20v-64.074C512,416.88,503.046,407.926,492,407.926z"/>
	</g>
</g>
<g>
</g>
<g>
</g>
<g>
</g>
<g>
</g>
<g>
</g>
<g>
</g>
<g>
</g>
<g>
</g>
<g>
</g>
<g>
</g>
<g>
</g>
<g>
</g>
<g>
</g>
<g>
</g>
<g>
</g>
</svg>
