<svg id="Capa_1" enable-background="new 0 0 512 512" height="512" viewBox="0 0 512 512" width="512" xmlns="http://www.w3.org/2000/svg" xmlns:xlink="http://www.w3.org/1999/xlink"><linearGradient id="SVGID_1_" gradientUnits="userSpaceOnUse" x1="256" x2="256" y1="512" y2="0"><stop offset="0" stop-color="#ffbef9"/><stop offset="1" stop-color="#fff1ff"/></linearGradient><linearGradient id="SVGID_2_" gradientUnits="userSpaceOnUse" x1="256" x2="256" y1="105" y2="407"><stop offset="0" stop-color="#a93aff"/><stop offset="1" stop-color="#ff81ff"/></linearGradient><g><g><circle cx="256" cy="256" fill="url(#SVGID_1_)" r="256"/></g><g><g><path d="m211.588 158.294h-53.294v53.294h53.294zm-26.647 35.529c-4.905 0-8.882-3.977-8.882-8.882 0-4.906 3.977-8.882 8.882-8.882s8.882 3.976 8.882 8.882c0 4.905-3.977 8.882-8.882 8.882zm115.471 17.765h53.294v-53.294h-53.294zm26.647-35.529c4.905 0 8.882 3.976 8.882 8.882 0 4.905-3.977 8.882-8.882 8.882s-8.882-3.977-8.882-8.882c0-4.906 3.977-8.882 8.882-8.882zm-168.765 177.647h53.294v-53.294h-53.294zm26.647-35.529c4.905 0 8.882 3.976 8.882 8.882 0 4.905-3.977 8.882-8.882 8.882s-8.882-3.977-8.882-8.882c0-4.907 3.977-8.882 8.882-8.882zm195.412-213.177h-248.706c-14.694 0-26.647 11.953-26.647 26.647v248.706c0 14.694 11.953 26.647 26.647 26.647h248.706c14.694 0 26.647-11.953 26.647-26.647v-248.706c0-14.694-11.953-26.647-26.647-26.647zm-239.824 44.412c0-4.909 3.973-8.882 8.882-8.882h71.059c4.91 0 8.882 3.973 8.882 8.882v71.059c0 4.909-3.973 8.882-8.882 8.882h-71.059c-4.91 0-8.882-3.973-8.882-8.882zm8.883 97.706h17.765c4.91 0 8.882 3.973 8.882 8.882s-3.973 8.882-8.882 8.882h-17.765c-4.91 0-8.882-3.973-8.882-8.882s3.972-8.882 8.882-8.882zm79.941 115.47c0 4.91-3.973 8.883-8.882 8.883h-71.059c-4.91 0-8.882-3.973-8.882-8.883v-71.059c0-4.909 3.973-8.882 8.882-8.882h71.059c4.91 0 8.882 3.973 8.882 8.882zm35.529 0c0 4.91-3.973 8.883-8.882 8.883s-8.882-3.973-8.882-8.883v-17.765c0-4.909 3.973-8.882 8.882-8.882s8.882 3.973 8.882 8.882zm0-53.294c0 4.909-3.973 8.882-8.882 8.882s-8.882-3.973-8.882-8.882v-17.765c0-4.909 3.973-8.882 8.882-8.882s8.882 3.973 8.882 8.882zm0-53.294c0 4.91-3.973 8.882-8.882 8.882h-53.294c-4.909 0-8.882-3.973-8.882-8.882s3.973-8.882 8.882-8.882h44.412v-62.177c0-4.91 3.973-8.882 8.882-8.882s8.882 3.973 8.882 8.882zm97.706 115.471h-71.059c-4.91 0-8.882-3.973-8.882-8.883v-71.059c0-4.909 3.973-8.882 8.882-8.882h26.647v-17.765h-26.647c-4.91 0-8.882-3.973-8.882-8.882s3.973-8.882 8.882-8.882h35.529c4.91 0 8.882 3.973 8.882 8.882v35.529c0 4.91-3.973 8.882-8.882 8.882h-26.647v53.294h62.177c4.91 0 8.882 3.973 8.882 8.882.001 4.911-3.972 8.884-8.882 8.884zm8.883-44.412c0 4.909-3.973 8.882-8.882 8.882h-35.529c-4.91 0-8.882-3.973-8.882-8.882 0-4.91 3.973-8.882 8.882-8.882h26.647v-8.882c0-4.91 3.973-8.883 8.882-8.883s8.882 3.973 8.882 8.883zm0-53.294c0 4.91-3.973 8.882-8.882 8.882s-8.882-3.973-8.882-8.882v-17.765c0-4.91 3.973-8.882 8.882-8.882s8.882 3.973 8.882 8.882zm0-53.294c0 4.909-3.973 8.882-8.882 8.882h-71.059c-4.91 0-8.882-3.973-8.882-8.882v-71.059c0-4.909 3.973-8.882 8.882-8.882h71.059c4.91 0 8.882 3.973 8.882 8.882z" fill="url(#SVGID_2_)"/></g></g></g></svg>