<svg height="480pt" viewBox="0 -52 480 480" width="480pt" xmlns="http://www.w3.org/2000/svg"><path d="m8 360c-4.417969 0-8 3.582031-8 8s3.582031 8 8 8h464c4.417969 0 8-3.582031 8-8s-3.582031-8-8-8zm0 0"/><path d="m428.96875 281.425781c1.597656 1.949219 3.039062 4.023438 4.3125 6.199219.175781.304688.367188.589844.542969.894531 1.183593 2.121094 2.203125 4.328125 3.054687 6.601563.152344.414062.3125.800781.457032 1.246094.800781 2.316406 1.417968 4.6875 1.855468 7.097656.039063.183594.113282.351562.144532.535156h24.664062v-88h-144v88h24.664062c0-.183594.105469-.351562.144532-.535156.4375-2.410156 1.054687-4.78125 1.855468-7.097656.144532-.414063.304688-.800782.457032-1.246094.847656-2.277344 1.871094-4.484375 3.0625-6.601563.167968-.304687.359375-.589843.535156-.886719 1.273438-2.179687 2.714844-4.257812 4.3125-6.207031l.136719-.152343c1.617187-1.925782 3.386719-3.714844 5.289062-5.363282.214844-.191406.40625-.390625.621094-.566406 1.871094-1.566406 3.859375-2.988281 5.945313-4.253906.351562-.21875.695312-.433594 1.054687-.640625 2.09375-1.210938 4.273437-2.257813 6.523437-3.136719l1.191407-.441406c2.34375-.847656 4.75-1.515625 7.199219-1.992188.320312-.0625.640624-.09375.960937-.152344 5.324219-.96875 10.785156-.96875 16.109375 0 .320312.058594.640625.089844.960938.152344 2.449218.476563 4.855468 1.144532 7.199218 1.992188l1.191406.441406c2.25.878906 4.429688 1.925781 6.523438 3.136719.359375.207031.703125.421875 1.054688.640625 2.085937 1.265625 4.074218 2.6875 5.945312 4.253906.214844.175781.40625.375.621094.566406 1.902344 1.648438 3.671875 3.4375 5.289062 5.363282zm0 0"/><path d="m352 168h80v-8.792969l-80-45.703125zm0 0"/><path d="m400 312c0 4.417969-3.582031 8-8 8s-8-3.582031-8-8 3.582031-8 8-8 8 3.582031 8 8zm0 0"/><path d="m392 280c-17.671875 0-32 14.328125-32 32s14.328125 32 32 32 32-14.328125 32-32-14.328125-32-32-32zm0 56c-13.253906 0-24-10.746094-24-24s10.746094-24 24-24 24 10.746094 24 24-10.746094 24-24 24zm0 0"/><path d="m464 140.640625-106.128906-60.640625h-37.871094v120h144zm-16 35.359375c0 4.417969-3.582031 8-8 8h-96c-4.417969 0-8-3.582031-8-8v-72c0-4.417969 3.582031-8 8-8h7.496094c1.402344-.003906 2.78125.359375 4 1.054688l88.503906 50.570312c2.480469 1.429688 4.003906 4.078125 4 6.941406zm0 0"/><path d="m104 280c-17.671875 0-32 14.328125-32 32s14.328125 32 32 32 32-14.328125 32-32-14.328125-32-32-32zm0 56c-13.253906 0-24-10.746094-24-24s10.746094-24 24-24 24 10.746094 24 24-10.746094 24-24 24zm0 0"/><path d="m140.96875 281.425781c1.597656 1.949219 3.039062 4.023438 4.3125 6.199219.175781.304688.367188.589844.542969.894531 1.183593 2.121094 2.203125 4.328125 3.054687 6.601563.152344.414062.3125.800781.457032 1.246094.800781 2.316406 1.417968 4.6875 1.855468 7.097656 0 .183594.113282.351562.144532.535156h152.664062v-304h-288v304h40.664062c0-.183594.105469-.351562.144532-.535156.4375-2.410156 1.054687-4.78125 1.855468-7.097656.144532-.414063.304688-.800782.457032-1.246094.847656-2.277344 1.871094-4.484375 3.0625-6.601563.167968-.304687.359375-.589843.535156-.886719 1.273438-2.179687 2.714844-4.257812 4.3125-6.207031l.136719-.152343c1.617187-1.925782 3.386719-3.714844 5.289062-5.363282.214844-.191406.40625-.390625.621094-.566406 1.871094-1.566406 3.859375-2.988281 5.945313-4.253906.351562-.21875.695312-.433594 1.054687-.640625 2.09375-1.210938 4.273437-2.257813 6.523437-3.136719l1.191407-.441406c2.34375-.847656 4.75-1.515625 7.199219-1.992188.320312-.0625.640624-.09375.960937-.152344 5.324219-.96875 10.785156-.96875 16.109375 0 .320312.058594.640625.089844.960938.152344 2.449218.476563 4.855468 1.144532 7.199218 1.992188l1.191406.441406c2.25.878906 4.429688 1.925781 6.523438 3.136719.359375.207031.703125.421875 1.054688.640625 2.085937 1.265625 4.074218 2.6875 5.945312 4.253906.214844.175781.40625.375.621094.566406 1.902344 1.648438 3.671875 3.4375 5.289062 5.363282zm0 0"/><path d="m112 312c0 4.417969-3.582031 8-8 8s-8-3.582031-8-8 3.582031-8 8-8 8 3.582031 8 8zm0 0"/></svg>